<svg width="29" height="29" viewBox="0 0 29 29" fill="none" xmlns="http://www.w3.org/2000/svg">
<path d="M14.8539 7.12891C11.0151 7.12891 7.89304 10.2394 7.89157 14.0627C7.89101 15.373 8.25899 16.649 8.95559 17.7531L9.12112 18.0154L8.41806 20.5743L11.0521 19.8858L11.3062 20.0361C12.3747 20.6678 13.5995 21.0022 14.8483 21.0027H14.8511C18.6871 21.0027 21.809 17.8919 21.8105 14.0682C21.8113 12.2154 21.088 10.4732 19.7741 9.16241C18.4602 7.85178 16.7128 7.12947 14.8539 7.12891ZM18.9475 17.0441C18.7732 17.531 17.9373 17.9755 17.5353 18.0353C17.1748 18.089 16.7187 18.1114 16.2175 17.9527C15.9137 17.8566 15.524 17.7283 15.0248 17.5136C12.9261 16.6106 11.5553 14.5051 11.4508 14.3659C11.3462 14.2268 10.5965 13.2355 10.5965 12.2094C10.5965 11.1834 11.137 10.679 11.3288 10.4703C11.5204 10.2617 11.7472 10.2094 11.8866 10.2094C12.0261 10.2094 12.1657 10.2107 12.2876 10.2168C12.416 10.2233 12.5885 10.1682 12.7584 10.5746C12.9327 10.9921 13.3511 12.0182 13.4034 12.1226C13.4558 12.2269 13.4906 12.3486 13.4209 12.4878C13.3511 12.6268 13.3163 12.7138 13.2117 12.8355C13.1071 12.9573 12.9919 13.1073 12.8978 13.2007C12.7931 13.3047 12.6841 13.4175 12.8061 13.6261C12.9282 13.8349 13.348 14.5175 13.97 15.0703C14.7691 15.7805 15.4433 16.0006 15.6525 16.105C15.8617 16.2094 15.9838 16.1918 16.1058 16.0528C16.2279 15.9137 16.6288 15.4441 16.7683 15.2354C16.9077 15.0268 17.0472 15.0615 17.239 15.1311C17.4307 15.2007 18.4594 15.7049 18.6686 15.8093C18.8778 15.9136 19.0173 15.9658 19.0695 16.0528C19.1218 16.1397 19.1218 16.5571 18.9475 17.0441Z" fill="white" fill-opacity="0.5"/>
<path d="M14.545 0.468636C6.84111 0.468636 0.595428 6.69068 0.595428 14.3668C0.595428 22.043 6.84111 28.2662 14.545 28.2662C22.2484 28.2662 28.494 22.043 28.494 14.3668C28.494 6.69068 22.2484 0.468636 14.545 0.468636ZM14.8511 22.4118C14.8509 22.4118 14.8513 22.4118 14.8511 22.4118H14.8477C13.4463 22.4113 12.0693 22.0609 10.8464 21.3963L6.40758 22.5565L7.59549 18.2332C6.86275 16.9679 6.4772 15.5327 6.47782 14.0623C6.47964 9.4623 10.2359 5.71984 14.8511 5.71984C17.091 5.72075 19.1933 6.58959 20.7742 8.16658C22.355 9.74351 23.2252 11.8396 23.2244 14.0689C23.2224 18.6689 19.4659 22.4118 14.8511 22.4118Z" fill="white" fill-opacity="0.5"/>
</svg>
