<svg width="27" height="28" fill="none" xmlns="http://www.w3.org/2000/svg"><g clip-path="url(#clip0_7_76)" fill-rule="evenodd" clip-rule="evenodd"><path d="M13.608 27.333c7.39 0 13.381-5.97 13.381-13.333C26.99 6.636 20.998.667 13.608.667 6.218.667.226 6.637.226 14c0 7.364 5.991 13.333 13.382 13.333z" fill="#fff" fill-opacity=".5"/><path d="M9.935 11.436H5.888v-.513 8.034c0 2.223 2.23 2.223 2.23 2.223h10.465s2.23 0 2.23-2.223v-8.034H16.44a3.859 3.859 0 00-3.089-1.538 3.859 3.859 0 00-3.088 1.538H5.888V8.53c0-1.403.888-1.92 1.544-2.11v2.965h.514V6.319c.107-.011.172-.011.172-.011h10.465s2.23 0 2.23 2.222v2.906h-4.048a3.82 3.82 0 01.445 1.795 3.853 3.853 0 01-3.86 3.846 3.853 3.853 0 01-3.86-3.846c0-.649.161-1.26.445-1.795zm8.168-4.103a.893.893 0 00-.893.89v.785c0 .491.402.89.893.89h.788a.893.893 0 00.893-.89v-.785a.893.893 0 00-.893-.89h-.788zM9.49 6.308v3.077h.515V6.308H9.49zm-1.03 0v3.077h.516V6.308H8.46zm4.89 10a3.083 3.083 0 003.088-3.077c0-1.7-1.382-3.077-3.088-3.077a3.082 3.082 0 00-3.088 3.077c0 1.7 1.383 3.077 3.088 3.077zm0-1.026a2.055 2.055 0 002.059-2.051 2.055 2.055 0 00-2.059-2.051 2.055 2.055 0 00-2.058 2.05c0 1.134.921 2.052 2.058 2.052z" fill="#000"/></g><defs><clipPath id="clip0_7_76"><path fill="#fff" transform="translate(.226 .667)" d="M0 0h26.763v26.667H0z"/></clipPath></defs></svg>