<svg width="27" height="27" fill="none" xmlns="http://www.w3.org/2000/svg"><path fill-rule="evenodd" clip-rule="evenodd" d="M13.5 27C20.956 27 27 20.956 27 13.5S20.956 0 13.5 0 0 6.044 0 13.5 6.044 27 13.5 27z" fill="#fff" fill-opacity=".5"/><path fill-rule="evenodd" clip-rule="evenodd" d="M6.75 9.81v7.645c0 .416.304.753.724.753h11.93c.42 0 .724-.34.724-.753V9.811c0-.457-.273-.811-.724-.811H7.474c-.469 0-.724.363-.724.81zm1.1.667c0-.184.112-.29.29-.29.11 0 4.445 2.747 4.708 2.908l.678.422c.215-.144.431-.267.654-.416.455-.291 4.504-2.914 4.616-2.914.178 0 .29.106.29.29 0 .195-.376.389-.621.538-1.538.937-3.075 1.959-4.598 2.93-.088.06-.26.19-.39.17-.143-.023-4.554-2.857-5.357-3.329-.12-.07-.27-.136-.27-.31z" fill="#000"/></svg>