<svg width="30" height="30" fill="none" xmlns="http://www.w3.org/2000/svg"><path d="M14.977 0C10.11 0 6.152 3.959 6.152 8.824v12.352c0 4.866 3.959 8.824 8.825 8.824 4.865 0 8.824-3.959 8.824-8.824V8.824C23.8 3.96 19.842 0 14.977 0zM22 21.176a7.032 7.032 0 01-7.024 7.024 7.033 7.033 0 01-7.025-7.024V8.824A7.033 7.033 0 0114.977 1.8 7.032 7.032 0 0122 8.824v12.352z" fill="#fff" fill-opacity=".6"/><path d="M14.977 5.968a.9.9 0 00-.9.9v4.142a.9.9 0 001.8 0V6.868a.9.9 0 00-.9-.9z" fill="#fff" fill-opacity=".6"/></svg>