<svg width="27" height="28" fill="none" xmlns="http://www.w3.org/2000/svg"><g clip-path="url(#clip0_7_81)" fill-rule="evenodd" clip-rule="evenodd"><path d="M13.434 27.333c7.39 0 13.382-5.97 13.382-13.333 0-7.364-5.991-13.333-13.382-13.333C6.044.667.052 6.637.052 14c0 7.364 5.992 13.333 13.382 13.333z" fill="#FFFDFD" fill-opacity=".5"/><path d="M19.923 13.96h2.088c-.065-.565-.473-.98-1.003-.98-.597 0-.956.38-1.085.98zm-3.2 1.836c.758-.01.945-.796.945-1.371 0-.728-.31-1.335-.945-1.344-.695-.01-.956.642-.956 1.344 0 .635.23 1.37.956 1.37zm8.12-3.167c0-.716-.559-1.295-1.25-1.295a1.22 1.22 0 00-.905.403 3.172 3.172 0 00-3.74.013 1.307 1.307 0 00-1.621-.158c-.489-.903-1.42-1.513-2.49-1.513a2.83 2.83 0 00-2.355 1.282 2.325 2.325 0 00-1.7-.743c-.44 0-.852.125-1.206.343-.008-.873-.691-1.576-1.535-1.576-.849 0-1.536.712-1.536 1.59l.003.062a3.23 3.23 0 00-1.903.278 1.648 1.648 0 00-.801-.21c-.933 0-1.693.786-1.693 1.755 0 .513.215.972.553 1.293a3.812 3.812 0 00-.014.319c0 1.919 1.502 3.473 3.354 3.473.72 0 1.386-.236 1.932-.635a2.67 2.67 0 002.181 1.152.662.662 0 00.065-.004c.259.76.954 1.304 1.775 1.304.83 0 1.535-.558 1.783-1.333.286.56.85.942 1.504.942.816 0 1.497-.597 1.66-1.391a2.534 2.534 0 002.088-.66 3.169 3.169 0 001.834.583c1.804 0 3.266-1.516 3.266-3.386 0-.23-.021-.457-.065-.674.476-.184.816-.657.816-1.214zm-1.705 1.51c0 .422-.123.53-.523.53h-2.692c0 .652.407 1.127 1.1 1.127.898 0 .898-.61 1.38-.61.285 0 .49.255.49.483 0 .743-1.152 1.09-1.87 1.09-1.354 0-2.023-.773-2.224-1.64-.18.91-.755 1.64-1.775 1.64-.546 0-.954-.229-1.174-.626h-.018v1.65c0 .405-.236.617-.595.617-.36 0-.595-.212-.595-.618v-4.6l-1.34 3.932c-.284.846-.612 1.286-1.363 1.286-.53 0-.75-.27-.75-.567 0-.33.229-.5.547-.5h.123c.154 0 .325-.006.415-.387l-1.24-3.662c-.043-.133-.077-.232-.101-.316-.028.038-.06.073-.097.113l-.88.956 1.241 1.724a.69.69 0 01.123.398c0 .313-.245.6-.564.6a.608.608 0 01-.539-.287l-1.126-1.65-.416.38v.94c0 .405-.236.617-.595.617-.36 0-.597-.212-.597-.617v-.455c-.214.73-1.01 1.072-1.778 1.072-1.077 0-1.975-.499-1.975-1.108 0-.27.147-.515.482-.515.514 0 .563.761 1.444.761.423 0 .693-.196.693-.447 0-.314-.261-.365-.685-.476l-.701-.176c-.694-.177-1.233-.475-1.233-1.304 0-1.004.963-1.378 1.787-1.378.905 0 1.82.374 1.82.94 0 .288-.188.54-.498.54-.466 0-.482-.566-1.232-.566-.417 0-.686.118-.686.38 0 .287.27.356.637.44l.497.12c.572.134 1.235.368 1.428.955v-3.857c0-.405.236-.617.597-.617.359 0 .595.212.595.617v2.807l1.321-1.521c.123-.136.279-.238.457-.238.195 0 .4.13.5.32a.57.57 0 01.514-.32c.318 0 .539.187.61.466l.769 2.884h.016l.726-2.798c.082-.314.245-.552.573-.552a.58.58 0 01.53.294c.071-.19.23-.294.488-.294.352 0 .54.205.54.584v.194h.017c.196-.524.677-.778 1.255-.778.85 0 1.61.553 1.815 1.709.23-1.045 1.006-1.709 2.177-1.709 1.37 0 2.155 1.007 2.155 2.022zm.37-1.934h.232s.002 0 .179.535l.166-.535h.23v.778h-.153s-.002 0-.002-.552l-.184.552h-.128s-.002 0-.185-.546v.546h-.156v-.778zm-.701.143v-.143h.614v.143h-.224v.635h-.166v-.635h-.224z" fill="#000"/></g><defs><clipPath id="clip0_7_81"><path fill="#fff" transform="translate(.052 .667)" d="M0 0h26.763v26.667H0z"/></clipPath></defs></svg>