<svg width="29" height="29" fill="none" xmlns="http://www.w3.org/2000/svg"><path d="M14.854 7.129c-3.839 0-6.961 3.11-6.962 6.934a6.9 6.9 0 001.064 3.69l.165.262-.703 2.56 2.634-.69.254.151a6.969 6.969 0 003.542.967h.003c3.836 0 6.958-3.111 6.96-6.935a6.88 6.88 0 00-2.037-4.906 6.925 6.925 0 00-4.92-2.033zm4.094 9.915c-.175.487-1.01.931-1.413.991-.36.054-.816.076-1.317-.082a12.09 12.09 0 01-1.193-.44c-2.099-.902-3.47-3.008-3.574-3.147-.105-.14-.854-1.13-.854-2.157 0-1.026.54-1.53.732-1.739a.77.77 0 01.558-.26c.14 0 .279 0 .4.007.129.006.301-.049.471.358.175.417.593 1.443.645 1.548.053.104.088.226.018.365-.07.139-.105.226-.21.348-.104.121-.22.271-.313.365-.105.104-.214.216-.092.425s.542.892 1.164 1.444c.8.71 1.473.93 1.682 1.035.21.104.332.087.454-.052.122-.14.523-.609.662-.818.14-.208.28-.173.471-.104.192.07 1.22.574 1.43.678.209.105.348.157.4.244.053.087.053.504-.121.991z" fill="#fff" fill-opacity=".5"/><path d="M14.545.469C6.841.469.595 6.69.595 14.367c0 7.676 6.246 13.9 13.95 13.9 7.703 0 13.949-6.224 13.949-13.9S22.248.469 14.545.469zm.306 21.943h-.003a8.39 8.39 0 01-4.002-1.016l-4.438 1.16 1.187-4.323a8.305 8.305 0 01-1.117-4.17c.002-4.6 3.758-8.343 8.373-8.343 2.24 0 4.342.87 5.923 2.447a8.278 8.278 0 012.45 5.902c-.002 4.6-3.758 8.343-8.373 8.343z" fill="#fff" fill-opacity=".5"/></svg>